<svg width="150" height="128" xmlns="http://www.w3.org/2000/svg" xmlns:xlink="http://www.w3.org/1999/xlink" xml:space="preserve" overflow="hidden"><g transform="translate(-313 -827)"><path d="M407.36 915.429C408.056 915.429 408.602 915.835 408.88 916.5L412.755 925.224C413.022 925.9 412.755 926.836 411.781 927.241L391.475 935.559C391.336 935.559 391.058 935.83 390.779 935.83 390.095 935.83 389.538 935.424 389.132 934.759L385.395 926.035C385.117 925.224 385.395 924.424 386.231 924.018L406.675 915.7C406.815 915.7 406.942 915.429 407.36 915.429ZM407.36 911C406.536 911 405.84 911.135 404.877 911.406L384.571 919.859C381.392 921.2 380.011 924.559 381.253 927.512L384.978 936.236C386.091 938.512 388.157 939.989 390.779 939.989 391.615 939.989 392.299 939.854 393.135 939.448L413.579 931.13C416.619 929.924 418 926.441 416.898 923.353L413.022 914.629C412.059 912.476 409.982 911 407.36 911Z" fill="#657E93" fill-rule="evenodd"/><path d="M402.494 873.271C407.886 873.271 412.571 876.156 412.571 879.862 412.571 883.44 407.886 886.325 402.494 886.325 397.253 886.325 392.557 883.44 392.557 879.862 392.557 876.156 397.114 873.271 402.494 873.271ZM402.494 869.012C398.772 869.012 395.317 870.108 392.557 871.897 389.658 873.952 388 876.976 388 880 388 883.163 389.658 885.91 392.557 888.114 395.317 890.03 398.772 891 402.494 891 406.367 891 409.811 889.892 412.571 888.114 415.469 886.048 416.988 883.163 416.988 880 416.988 876.976 415.342 873.952 412.571 871.897 409.811 870.108 406.367 869.012 402.494 869.012Z" fill="#657E93" fill-rule="evenodd"/><path d="M367.102 888.242 373.466 888.929C374.273 889.067 375.091 889.606 375.489 890.431L381.989 905.299C382.386 905.987 382.386 906.663 382.261 907.351 382.125 908.027 381.58 908.577 380.898 908.715L370.886 913.22C370.625 913.358 370.216 913.358 369.943 913.358 368.864 913.358 368.046 912.807 367.511 911.856L360.875 896.977C360.614 896.163 360.614 895.2 361.284 894.386L364.943 889.331C365.477 888.654 366.296 888.242 367.102 888.242ZM366.966 884.012C364.807 884.012 362.773 884.963 361.421 886.877L357.773 892.059C356.148 894.111 356.011 896.564 356.955 899.028L363.58 913.896C364.807 916.361 367.102 918 369.807 918 370.886 918 371.705 917.725 372.511 917.312L382.523 912.807C384.284 912.131 385.636 910.767 386.046 908.852 386.989 907.213 386.989 905.299 386.182 903.66L379.546 888.792C378.466 886.602 376.307 884.963 373.864 884.699 371.568 884.562 369.136 884.012 366.966 884.012Z" fill="#657E93" fill-rule="evenodd"/><path d="M368.505 892C367.132 892 366.011 893.346 366.011 894.994 366.011 896.792 367.132 897.987 368.505 897.987 369.878 897.987 371 896.792 371 894.994 371 893.346 369.878 892 368.505 892Z" fill="#657E93" fill-rule="evenodd"/><path d="M400.345 843.371 400.345 849.77 375.506 849.77 375.506 843.371ZM400.208 831.648C406.627 831.648 411.945 836.822 411.945 843.371L411.945 849.77 404.575 849.77 404.575 843.371C404.575 840.909 402.535 838.872 400.208 838.872L375.506 838.872C373.053 838.872 371.001 840.909 371.001 843.371L371.001 849.77 363.631 849.77 363.631 843.371C363.631 836.822 368.961 831.648 375.506 831.648ZM346.574 850.995C347.537 850.995 348.213 851.682 348.213 852.495L348.213 864.767C348.213 865.717 348.901 866.541 349.715 866.816 349.956 866.908 350.208 866.953 350.449 866.953 351.572 866.953 352.581 865.992 352.581 864.767L352.581 853.994 423.408 853.994 423.408 947.227 352.581 947.227 352.581 873.628C352.581 872.54 351.629 871.441 350.403 871.441 349.165 871.441 348.213 872.54 348.213 873.628L348.213 949.001C348.213 949.814 347.537 950.501 346.574 950.501L339.479 950.501C338.665 950.501 337.977 949.814 337.977 949.001L337.977 852.495C337.977 851.682 338.665 850.995 339.479 850.995ZM436.51 850.995C437.335 850.995 438.012 851.682 438.012 852.495L438.012 949.001C438.012 949.814 437.335 950.501 436.51 950.501L429.415 950.501C428.463 950.501 427.775 949.814 427.775 949.001L427.775 852.495C427.775 851.682 428.463 850.995 429.415 850.995ZM375.643 827.012C366.771 827.012 359.401 834.373 359.401 843.233L359.401 849.633 351.904 849.633C350.941 847.732 348.901 846.37 346.574 846.37L339.479 846.37C337.026 846.37 335.249 847.732 334.16 849.633L328.016 849.633C319.832 849.633 313 856.318 313 864.63L313 918.469C313 919.694 314.101 920.645 315.19 920.645 316.416 920.645 317.505 919.694 317.505 918.469L317.505 864.63C317.505 858.906 322.285 854.132 328.016 854.132L333.472 854.132 333.472 947.227 328.016 947.227C322.285 947.227 317.505 942.453 317.505 936.729L317.505 927.33C317.505 926.105 316.416 925.144 315.19 925.144 314.101 925.144 313 926.105 313 927.33L313 936.729C313 944.914 319.694 951.726 328.016 951.726L334.16 951.726C335.249 953.638 337.301 955 339.479 955L346.574 955C349.039 955 350.941 953.638 351.904 951.726L424.096 951.726C425.047 953.638 427.099 955 429.415 955L436.51 955C438.837 955 440.751 953.638 441.84 951.726L447.984 951.726C456.168 951.726 462.989 945.052 462.989 936.729L462.989 883.026C462.989 881.802 461.9 880.851 460.673 880.851 459.584 880.851 458.484 881.802 458.484 883.026L458.484 936.729C458.484 942.453 453.715 947.227 447.984 947.227L442.516 947.227 442.516 854.132 447.984 854.132C453.715 854.132 458.484 858.906 458.484 864.63L458.484 874.166C458.484 875.539 459.584 876.352 460.811 876.352 461.9 876.352 462.989 875.402 462.989 874.166L462.989 864.63C462.989 856.456 456.306 849.633 447.984 849.633L441.84 849.633C440.751 847.732 438.699 846.37 436.51 846.37L429.415 846.37C426.962 846.37 425.047 847.732 424.096 849.633L416.588 849.633 416.588 843.233C416.588 834.373 409.217 827.012 400.345 827.012Z" fill="#657E93" fill-rule="evenodd"/></g></svg>