<svg width="137" height="113" xmlns="http://www.w3.org/2000/svg" xmlns:xlink="http://www.w3.org/1999/xlink" xml:space="preserve" overflow="hidden"><defs><clipPath id="clip0"><rect x="1424" y="552" width="137" height="113"/></clipPath></defs><g clip-path="url(#clip0)" transform="translate(-1424 -552)"><path d="M1519.12 556.124C1526.35 556.124 1534.62 557.403 1543.27 561.17L1543.27 641.81C1535.31 638.55 1527 637.029 1518.89 637.029 1510.34 637.029 1502.03 638.711 1494.61 641.81L1494.61 561.17C1497.61 559.788 1506.86 556.124 1519.12 556.124ZM1466.36 556.124C1475.04 556.124 1483.43 557.91 1490.66 561.17 1490.53 571.319 1490.53 629.887 1490.53 641.81 1486.03 640.036 1477.3 637.156 1465.99 637.156 1457.53 637.156 1449.36 638.665 1441.72 641.949L1441.72 596.548C1441.72 595.315 1440.91 594.497 1439.68 594.497 1438.45 594.497 1437.63 595.315 1437.63 596.548L1437.63 644.011C1437.63 645.52 1438.86 646.752 1440.36 646.752 1440.77 646.752 1441.05 646.752 1441.45 646.614 1449.22 643.193 1457.39 641.407 1465.85 641.407 1477.98 641.407 1487.39 644.967 1490.39 646.338L1490.39 651.142 1428.77 651.142C1428.36 651.142 1428.1 650.865 1428.1 650.462L1428.1 566.377C1428.1 565.962 1428.36 565.686 1428.77 565.686L1437.77 565.686 1437.77 588.323C1437.77 589.417 1438.59 590.385 1439.82 590.385 1441.05 590.385 1441.86 589.417 1441.86 588.323L1441.86 561.17C1449.79 557.702 1458.2 556.124 1466.36 556.124ZM1499.65 644.011 1499.65 658.549 1498.42 657.593C1498.08 657.247 1497.61 657.074 1497.15 657.074 1496.68 657.074 1496.25 657.247 1495.97 657.593L1494.61 658.687 1494.61 646.073C1495.56 645.52 1497.47 644.829 1499.65 644.011ZM1518.71 552C1509.15 552 1500.05 554.051 1492.56 557.599 1489.43 556.228 1479.62 552.115 1465.99 552.115 1456.72 552.115 1447.72 554.028 1439.13 557.875 1437.09 558.831 1437.63 561.17 1437.63 561.711L1428.64 561.711C1426.05 561.711 1424 563.774 1424 566.377L1424 650.324C1424 652.927 1426.05 654.978 1428.64 654.978L1490.53 654.978 1490.53 662.938C1490.53 664.205 1491.42 664.989 1492.43 664.989 1492.84 664.989 1493.26 664.862 1493.65 664.585L1497.06 661.844C1500.2 664.171 1500.34 665 1501.7 665 1502.92 665 1503.75 664.171 1503.75 662.938L1503.75 654.978 1530.87 654.978C1532.09 654.978 1532.91 654.022 1532.91 652.927 1532.91 651.695 1532.09 650.865 1530.87 650.865L1503.75 650.865 1503.75 642.916C1508.72 641.661 1513.83 641.027 1518.96 641.027 1527.32 641.027 1535.73 642.72 1543.68 646.199 1544.01 646.372 1544.37 646.453 1544.71 646.453 1546.06 646.453 1547.37 645.266 1547.37 643.734L1547.37 565.559 1556.35 565.559C1556.76 565.559 1557.04 565.962 1557.04 566.239L1557.04 650.324C1557.04 650.727 1556.76 651.003 1556.35 651.003L1539.04 651.003C1537.82 651.003 1537 651.833 1537 653.065 1537 654.298 1537.82 655.116 1539.04 655.116L1556.35 655.116C1558.95 655.116 1560.99 653.065 1560.99 650.462L1560.99 566.239C1560.85 563.497 1558.81 561.573 1556.21 561.573L1547.23 561.573C1547.09 561.032 1547.77 558.693 1545.73 557.737 1536.92 553.774 1527.62 552 1518.71 552Z" fill="#657E93" fill-rule="evenodd"/></g></svg>