<svg width="129" height="119" xmlns="http://www.w3.org/2000/svg" xmlns:xlink="http://www.w3.org/1999/xlink" xml:space="preserve" overflow="hidden"><g transform="translate(-2275 -1333)"><path d="M2314.03 1346.65 2314.03 1350.34 2294.18 1350.34 2294.18 1346.65ZM2310.61 1354.05 2310.61 1357.05 2298.15 1368.01 2298.15 1354.05ZM2352.51 1401.44C2352.92 1401.44 2353.19 1401.72 2353.19 1402.13L2353.19 1448.29 2328.41 1448.29 2328.41 1402.13C2328.41 1401.72 2328.68 1401.44 2329.1 1401.44ZM2339.41 1333.01C2338.75 1333.01 2338.07 1333.22 2337.45 1333.63L2317.46 1351.03 2317.46 1345.96C2317.46 1344.45 2316.09 1343.08 2314.58 1343.08L2293.35 1343.08C2291.71 1343.08 2290.34 1344.45 2290.34 1345.96L2290.34 1351.3C2290.34 1352.8 2291.71 1354.17 2293.35 1354.17L2294.45 1354.17 2294.45 1371.31 2276.24 1387.2C2275.29 1388.01 2275.01 1389.24 2275.29 1390.35 2275.69 1391.44 2276.92 1392.12 2277.89 1392.12L2290.2 1392.12 2290.2 1424.73C2290.2 1425.7 2291.03 1426.65 2292.12 1426.65 2293.08 1426.65 2294.04 1425.7 2294.04 1424.73L2294.04 1391.17 2339.51 1351.57 2384.96 1391.17 2384.96 1447.34C2384.96 1447.88 2384.55 1448.29 2384 1448.29L2356.76 1448.29 2356.76 1402.13C2356.76 1399.66 2354.7 1397.61 2352.37 1397.61L2328.82 1397.61C2326.5 1397.61 2324.44 1399.66 2324.44 1402.13L2324.44 1448.29 2295 1448.29C2294.45 1448.29 2294.04 1447.88 2294.04 1447.34L2294.04 1433.5C2294.04 1432.4 2293.08 1431.58 2292.12 1431.58 2291.03 1431.58 2290.2 1432.4 2290.2 1433.5L2290.2 1447.34C2290.2 1449.94 2292.26 1452 2294.86 1452L2383.86 1452C2386.46 1452 2388.52 1449.94 2388.52 1447.34L2388.52 1391.99 2400.85 1391.99C2401.94 1391.99 2403.03 1391.3 2403.31 1390.07 2403.99 1389.12 2403.86 1387.87 2402.9 1387.06L2376.33 1363.91C2376.03 1363.6 2375.61 1363.46 2375.18 1363.46 2374.65 1363.46 2374.11 1363.66 2373.73 1364.04 2373.05 1364.72 2373.19 1365.95 2373.87 1366.65L2398.79 1388.29 2387.43 1388.29 2341.28 1348.02C2340.74 1347.6 2340.08 1347.39 2339.41 1347.39 2338.75 1347.39 2338.07 1347.6 2337.45 1348.02L2291.31 1388.29 2279.93 1388.29 2297.06 1373.35 2313.35 1359.25 2339.51 1336.91 2367.3 1361.03C2367.6 1361.34 2367.99 1361.48 2368.39 1361.48 2368.89 1361.48 2369.38 1361.27 2369.76 1360.89 2370.44 1360.2 2370.32 1358.97 2369.63 1358.29L2341.28 1333.63C2340.74 1333.22 2340.08 1333.01 2339.41 1333.01Z" fill="#657E93" fill-rule="evenodd"/></g></svg>