<svg width="120" height="135" xmlns="http://www.w3.org/2000/svg" xmlns:xlink="http://www.w3.org/1999/xlink" xml:space="preserve" overflow="hidden"><g transform="translate(-1112 -990)"><path d="M1146.26 1025.01C1143.69 1025.01 1141.31 1025.29 1139.13 1025.85 1131.91 1027.77 1125.5 1032.42 1120.59 1038.84 1114.86 1046.36 1112 1055.94 1112 1066.6 1112 1077.54 1116.91 1091.9 1124.82 1104.2 1133.54 1117.33 1143.49 1124.99 1152.35 1124.99 1156.03 1124.99 1159.58 1124.58 1162.84 1123.48 1164.61 1123.01 1166.49 1122.77 1168.37 1122.77 1170.23 1122.77 1172.11 1123.01 1173.89 1123.48 1177.29 1124.58 1180.83 1124.99 1184.25 1124.99 1193.11 1124.99 1203.33 1117.47 1211.92 1104.2 1219.81 1092.04 1224.59 1077.68 1224.59 1066.6 1225 1058.54 1223.23 1051.43 1220.23 1045.13 1219.84 1044.26 1219.05 1043.8 1218.18 1043.8 1217.82 1043.8 1217.44 1043.88 1217.09 1044.04 1216 1044.58 1215.59 1045.95 1216.14 1047.19 1219 1052.79 1220.36 1059.49 1220.36 1066.6 1220.36 1076.72 1215.73 1090.26 1208.23 1101.61 1200.59 1113.37 1191.74 1120.48 1184.38 1120.48 1181.38 1120.48 1178.11 1119.94 1175.25 1119.11 1172.99 1118.43 1170.68 1118.09 1168.38 1118.09 1166.08 1118.09 1163.8 1118.43 1161.61 1119.11 1158.75 1119.94 1155.48 1120.48 1152.35 1120.48 1145.13 1120.48 1136.27 1113.37 1128.5 1101.61 1121 1090.26 1116.5 1076.72 1116.5 1066.6 1116.5 1057.03 1119.22 1048.42 1124.13 1041.57 1128.36 1035.97 1134.22 1031.87 1140.08 1030.36 1141.86 1029.88 1143.86 1029.65 1146.06 1029.65 1149.43 1029.65 1153.27 1030.19 1157.39 1031.19 1158.08 1031.32 1158.89 1031.59 1159.58 1031.73 1159.68 1031.74 1159.78 1031.75 1159.89 1031.75 1160.97 1031.75 1161.92 1031.08 1162.3 1029.95 1162.44 1028.86 1161.75 1027.63 1160.53 1027.22L1158.48 1026.81C1154.06 1025.6 1149.96 1025.01 1146.26 1025.01Z" fill="#657E93" fill-rule="evenodd"/><path d="M1190.77 1025C1186.98 1025 1182.8 1025.63 1178.26 1026.82 1176.48 1027.23 1174.84 1027.51 1173.19 1027.8 1172.1 1027.94 1171.01 1029.2 1171.14 1030.47 1171.4 1031.65 1172.38 1032.59 1173.5 1032.59 1173.58 1032.59 1173.66 1032.59 1173.75 1032.58 1175.65 1032.44 1177.57 1031.87 1179.35 1031.46 1183.4 1030.43 1187.22 1029.88 1190.62 1029.88 1192.83 1029.88 1194.88 1030.11 1196.72 1030.61 1202.32 1032.15 1207.79 1035.96 1211.9 1041.15 1212.44 1041.72 1213.13 1041.99 1213.53 1041.99 1214.08 1041.99 1214.63 1041.86 1214.9 1041.57 1216 1040.45 1216 1039.04 1215.31 1038.06 1210.52 1032.01 1204.24 1027.66 1197.67 1025.83 1195.56 1025.27 1193.25 1025 1190.77 1025Z" fill="#657E93" fill-rule="evenodd"/><path d="M1201.52 990.012C1199.95 990.012 1198.38 990.116 1196.78 990.301 1189.35 990.857 1182.88 994.715 1177.8 1001.89 1174.64 1006.3 1172.98 1010.59 1172.57 1011.83L1166.51 1021.2C1164.73 1015.96 1163.08 1012.65 1162.94 1012.51 1162.57 1011.67 1161.69 1011.28 1160.87 1011.28 1160.47 1011.28 1160.09 1011.36 1159.78 1011.55 1158.54 1011.96 1158.26 1013.62 1158.82 1014.58 1158.82 1014.72 1164.04 1024.93 1165.14 1038.17 1163.36 1038.03 1161.71 1037.47 1160.47 1037.07 1158.96 1036.37 1158.4 1035.69 1158.4 1035.41 1158.4 1034.3 1157.3 1033.2 1156.21 1033.2 1154.96 1033.2 1154 1034.3 1154 1035.41 1154 1036.79 1154.69 1039.41 1158.54 1041.34 1161.01 1042.3 1164.32 1043 1167.76 1043 1171.19 1043 1174.22 1042.3 1176.83 1041.34 1180.97 1039.41 1181.51 1036.79 1181.51 1035.41 1181.51 1034.3 1180.41 1033.2 1179.18 1033.2 1178.08 1033.2 1176.97 1034.3 1176.97 1035.41 1176.97 1035.69 1176.43 1036.37 1174.91 1037.07 1173.54 1037.75 1171.89 1038.03 1169.96 1038.17 1169.54 1034.03 1168.86 1030.3 1168.17 1026.99L1176.15 1015C1176.43 1015 1176.83 1015.13 1177.66 1015.27 1179.04 1015.82 1180.97 1016.78 1183.02 1018.03 1188.4 1021.2 1195.41 1025.07 1203.12 1025.07 1205.73 1025.07 1208.48 1024.65 1211.23 1023.55 1228.42 1016.78 1231.86 994.993 1231.86 994.031 1232 993.614 1231.72 992.653 1230.76 992.236 1230.42 991.958 1230 991.819 1229.57 991.819 1229.15 991.819 1228.7 991.958 1228.28 992.236 1226.77 993.186 1225.14 993.557 1223.27 993.557 1221.07 993.557 1218.54 993.047 1215.49 992.375 1214.94 992.236 1214.53 992.236 1213.98 991.958 1213.81 991.923 1213.65 991.911 1213.49 991.911 1212.43 991.911 1211.47 992.676 1211.23 993.753 1210.81 994.993 1211.78 996.094 1212.88 996.511 1213.43 996.65 1213.98 996.65 1214.53 996.789 1217.7 997.507 1220.56 998.144 1223.35 998.144 1224.31 998.144 1225.26 998.075 1226.22 997.889L1226.22 997.889C1224.43 1004.1 1219.75 1015.68 1209.3 1019.54 1207.15 1020.38 1205.03 1020.72 1202.95 1020.72 1196.41 1020.72 1190.35 1017.24 1185.23 1014.3 1182.48 1012.65 1180.13 1011.27 1178.08 1010.59 1180.41 1005.48 1186.47 995.827 1197.06 994.993 1198.48 994.866 1199.87 994.808 1201.28 994.808 1203 994.808 1204.73 994.9 1206.55 995.132 1206.64 995.144 1206.73 995.144 1206.81 995.144 1207.96 995.144 1209.03 994.344 1209.16 993.058 1209.3 991.819 1208.48 990.579 1207.1 990.44 1205.18 990.151 1203.35 990.012 1201.52 990.012Z" fill="#657E93" fill-rule="evenodd"/></g></svg>