<svg width="153" height="129" xmlns="http://www.w3.org/2000/svg" xmlns:xlink="http://www.w3.org/1999/xlink" xml:space="preserve" overflow="hidden"><g transform="translate(-1286 -826)"><path d="M1305.61 848.996 1305.61 858.274C1305.61 859.375 1305.2 860.602 1304.52 861.015 1302.73 862.38 1300.95 864.696 1300.27 867.151L1295.6 867.151C1295.19 864.834 1293.68 862.38 1292.03 861.279 1291.22 860.74 1290.53 859.375 1290.53 858.274L1290.53 848.996ZM1300.13 871.52 1300.13 885.993C1300.13 899.927 1300.27 913.574 1301.77 927.371 1302.73 935.697 1303.15 942.658 1303.15 944.034 1303.01 947.165 1300.95 949.493 1298.07 949.493 1295.19 949.493 1293.13 947.302 1293.13 944.298 1293.13 942.795 1293.54 935.834 1294.5 927.508 1296.01 913.712 1296.15 900.065 1296.15 886.268L1296.15 871.52ZM1288.34 827.012C1287.11 827.012 1286 827.963 1286 829.19L1286 858.274C1286 861.015 1287.65 863.882 1289.85 865.247 1290.53 865.511 1291.49 867.976 1291.49 869.341L1291.49 885.993C1291.49 899.927 1291.36 913.31 1289.98 926.958 1289.16 935.421 1288.6 942.532 1288.6 944.298 1288.6 949.768 1292.73 954 1298.07 954 1303.41 954 1307.54 949.768 1307.54 944.298 1307.54 942.532 1306.98 935.421 1306.15 926.958 1304.52 913.31 1304.52 899.927 1304.52 885.993L1304.52 869.341C1304.52 867.839 1305.75 865.511 1307.12 864.559 1309.31 863.056 1310 860.327 1310 858.01L1310 829.879C1310 828.927 1309.04 827.826 1307.8 827.826 1306.57 827.826 1305.61 828.927 1305.61 830.016L1305.61 844.627 1300.27 844.627 1300.27 829.19C1300.27 827.963 1299.3 827.012 1298.07 827.012 1296.84 827.012 1295.88 827.963 1295.88 829.19L1295.88 844.627 1290.53 844.627 1290.53 829.19C1290.53 827.963 1289.43 827.012 1288.34 827.012Z" fill="#657E93" fill-rule="evenodd"/><path d="M1326.4 857C1325.78 857 1325.19 857.286 1324.81 857.811 1317.21 867.064 1313 878.761 1313 890.721 1313 919.016 1336.08 942 1364.19 942 1376.14 942 1387.82 937.785 1396.91 930.165 1398 929.217 1398 927.858 1397.32 927.035 1396.84 926.487 1396.08 926.202 1395.38 926.202 1394.88 926.202 1394.4 926.35 1394.05 926.636 1385.78 933.57 1375.05 937.51 1364.19 937.51 1338.4 937.51 1317.34 916.435 1317.34 890.447 1317.34 879.709 1321.29 868.96 1328.21 860.53 1329.02 859.582 1328.88 858.222 1327.8 857.537 1327.38 857.183 1326.88 857 1326.4 857Z" fill="#657E93" fill-rule="evenodd"/><path d="M1364.02 839.012C1351.94 839.012 1340.29 843.095 1331.11 850.725 1330 851.674 1330 853.035 1330.69 853.859 1331.14 854.374 1331.74 854.602 1332.36 854.602 1332.88 854.602 1333.4 854.442 1333.85 854.122 1342.21 847.179 1353.05 843.507 1364.02 843.507 1390.07 843.507 1411.33 864.474 1411.33 890.485 1411.33 901.386 1407.49 911.875 1400.5 920.454 1399.68 921.403 1399.82 922.765 1400.91 923.451 1401.19 923.851 1401.73 923.989 1402.28 923.989 1402.82 923.989 1403.51 923.588 1403.93 923.176 1411.6 913.911 1415.72 902.335 1415.72 890.485 1415.99 862.026 1392.67 839.012 1364.02 839.012Z" fill="#657E93" fill-rule="evenodd"/><path d="M1363.5 853.365C1383.91 853.365 1400.51 870.093 1400.51 890.5 1400.51 910.907 1383.91 927.509 1363.5 927.509 1343.09 927.509 1326.36 910.907 1326.36 890.5 1326.36 870.093 1343.09 853.365 1363.5 853.365ZM1363.5 849.011C1340.65 849.011 1322.01 867.648 1322.01 890.5 1322.01 913.364 1340.65 932 1363.5 932 1386.49 932 1404.99 913.227 1404.99 890.5 1404.99 867.51 1386.22 849.011 1363.5 849.011Z" fill="#657E93" fill-rule="evenodd"/><path d="M1434.35 832.388 1434.35 890.056 1428.2 890.321 1428.07 890.321C1427.95 890.344 1427.84 890.344 1427.72 890.344 1426.69 890.344 1425.52 889.837 1424.78 889.226 1424.38 888.684 1424.25 888.407 1424.25 888.407L1424.25 853.802C1424.25 845.569 1428.07 837.6 1434.35 832.388ZM1434.49 894.715C1434.49 934.947 1434.63 944.287 1434.63 944.553 1434.49 947.032 1433.8 950.18 1430.8 950.18 1429.84 950.18 1427.11 950.18 1427.11 944.287 1427.11 942.638 1427.65 937.968 1428.34 932.618 1429.43 923.693 1430.8 911.331 1430.8 903.098L1430.8 894.715ZM1436.67 826C1436.29 826 1435.93 826.069 1435.58 826.208 1426.01 832.112 1420.01 842.686 1420.01 854.079L1420.01 888.545C1420.01 890.056 1420.69 891.428 1422.05 892.662 1423.28 893.758 1424.78 894.449 1426.29 894.715L1426.29 903.363C1426.29 911.331 1424.92 923.554 1423.97 932.341 1423.28 937.968 1422.74 942.362 1422.74 944.553 1422.74 954.17 1428.88 954.988 1430.8 954.988 1434.63 954.988 1439 952.244 1439 944.553L1439 828.133C1439 827.303 1438.45 826.623 1437.76 826.208 1437.43 826.069 1437.05 826 1436.67 826Z" fill="#657E93" fill-rule="evenodd"/></g></svg>