<svg width="92" height="118" xmlns="http://www.w3.org/2000/svg" xmlns:xlink="http://www.w3.org/1999/xlink" xml:space="preserve" overflow="hidden"><defs><clipPath id="clip0"><rect x="2517" y="1007" width="92" height="118"/></clipPath></defs><g clip-path="url(#clip0)" transform="translate(-2517 -1007)"><path d="M2551.85 1046.01C2550.77 1046.01 2550.01 1046.9 2550.01 1047.66L2550.01 1049.45C2550.01 1050.35 2550.93 1050.99 2551.85 1050.99 2552.92 1050.99 2553.85 1050.23 2553.85 1049.45L2553.85 1047.66C2553.99 1046.64 2553.07 1046.01 2551.85 1046.01Z" fill="#657E93" fill-rule="evenodd"/><path d="M2574.07 1046.01C2572.8 1046.01 2572.01 1046.9 2572.01 1047.66L2572.01 1049.45C2572.01 1050.35 2573.12 1050.99 2574.07 1050.99 2575.04 1050.99 2575.99 1050.23 2575.99 1049.45L2575.99 1047.66C2575.99 1046.64 2575.2 1046.01 2574.07 1046.01Z" fill="#657E93" fill-rule="evenodd"/><path d="M2557.89 1059.01C2557.46 1059.01 2557.04 1059.17 2556.7 1059.49 2556 1060.13 2556 1061.16 2556.7 1061.81 2558.23 1063.22 2560.86 1063.99 2563.64 1063.99 2566.42 1063.99 2569.05 1063.22 2570.58 1061.81 2571 1061.16 2571 1060.13 2570.3 1059.49 2569.96 1059.17 2569.51 1059.01 2569.05 1059.01 2568.61 1059.01 2568.15 1059.17 2567.8 1059.49 2567.12 1060.13 2565.59 1060.77 2563.5 1060.77 2561.41 1060.77 2559.62 1060.13 2559.2 1059.49 2558.78 1059.17 2558.32 1059.01 2557.89 1059.01Z" fill="#657E93" fill-rule="evenodd"/><path d="M2588.28 1031.8 2587.18 1044.06 2587.06 1044.06C2585.96 1044.06 2585.01 1043.11 2585.01 1042.02L2585.01 1032.48C2586.23 1032.48 2587.18 1032.07 2588.28 1031.8ZM2583.24 1010.68C2588.42 1010.68 2592.64 1014.91 2592.64 1019.94 2592.64 1025.13 2588.42 1029.35 2583.24 1029.35 2579.84 1029.35 2576.84 1027.44 2575.06 1024.58 2574.78 1024.02 2574.18 1023.65 2573.56 1023.65 2573.29 1023.65 2573 1023.73 2572.74 1023.9 2571.93 1024.44 2571.52 1025.4 2572.06 1026.35 2572.2 1026.49 2572.2 1026.62 2572.34 1026.76 2571.65 1027.17 2570.98 1027.44 2570.29 1027.44 2568.24 1027.44 2566.62 1025.8 2566.62 1023.76 2566.62 1022.68 2565.79 1021.99 2564.84 1021.99 2564.02 1021.99 2563.21 1022.94 2563.21 1023.76 2563.21 1027.71 2566.48 1031.12 2570.57 1031.12 2572.06 1031.12 2573.56 1030.57 2574.93 1029.49 2576.84 1031.26 2579.29 1032.48 2581.87 1032.76L2581.87 1042.15C2581.87 1045.15 2584.32 1047.6 2587.32 1047.6L2590.05 1047.6C2590.87 1047.6 2591.55 1047.87 2592.23 1048.56 2592.78 1049.24 2593.18 1049.92 2592.92 1050.87 2592.78 1052.23 2591.42 1053.33 2589.92 1053.33L2589.1 1053.33 2589.1 1053.2C2589.1 1052.23 2588.15 1051.56 2587.32 1051.56 2586.37 1051.56 2585.69 1052.37 2585.69 1053.2 2585.69 1065.45 2575.6 1075.39 2563.34 1075.39 2550.8 1075.39 2540.85 1065.31 2540.85 1053.06 2540.85 1051.96 2540.04 1051.28 2539.22 1051.28 2538.27 1051.28 2537.45 1052.23 2537.45 1053.06L2537.45 1053.2 2536.49 1053.2C2535.54 1053.2 2534.86 1052.92 2534.18 1052.23 2533.77 1051.56 2533.36 1050.87 2533.49 1049.92 2533.77 1048.56 2535.13 1047.47 2536.63 1047.47L2539.22 1047.47C2542.21 1047.47 2544.68 1045.01 2544.68 1042.02L2544.68 1033.98C2544.68 1030.85 2547.12 1028.4 2550.26 1028.4L2557.35 1028.4C2558.43 1028.4 2559.12 1027.44 2559.12 1026.62 2559.12 1025.67 2558.3 1024.99 2557.35 1024.99L2550.26 1024.99C2545.35 1024.99 2541.26 1029.07 2541.26 1033.98L2541.26 1042.02C2541.26 1042.98 2540.31 1044.06 2539.22 1044.06L2538.82 1044.06 2536.9 1024.99C2536.63 1021.32 2537.85 1017.63 2540.18 1014.91 2542.63 1012.18 2546.18 1010.68 2549.85 1010.68ZM2574.38 1075.81 2574.38 1081.8C2574.38 1085.08 2576.56 1087.94 2579.7 1088.75L2582.7 1089.7C2581.87 1092.57 2580.37 1095.29 2578.46 1097.47 2577.79 1098.15 2577.93 1099.38 2578.6 1099.92 2579.01 1100.19 2579.29 1100.33 2579.84 1100.33 2580.37 1100.33 2580.92 1100.19 2581.2 1099.92 2583.65 1097.19 2585.28 1094.06 2586.37 1090.66L2590.05 1091.88C2588.01 1097.47 2584.87 1102.38 2580.24 1106.19 2575.2 1110.14 2569.34 1112.32 2562.79 1112.32 2556.4 1112.32 2550.4 1110.27 2545.49 1106.19 2540.99 1102.65 2537.72 1097.61 2536.09 1092.16L2539.9 1091.07C2541.13 1095.56 2543.99 1099.65 2547.67 1102.78 2551.9 1106.19 2557.21 1108.24 2562.79 1108.24 2567.15 1108.24 2571.24 1107.14 2574.79 1104.96 2575.6 1104.41 2575.74 1103.46 2575.48 1102.65 2575.11 1102.02 2574.58 1101.75 2573.99 1101.75 2573.68 1101.75 2573.35 1101.83 2573.01 1101.97 2570.02 1103.6 2566.34 1104.69 2562.79 1104.69 2553.8 1104.69 2545.76 1098.56 2543.31 1089.84L2546.71 1088.75C2549.71 1087.94 2551.9 1085.08 2551.9 1081.8L2551.9 1075.81C2555.3 1077.58 2559.12 1078.39 2563.21 1078.39 2567.29 1078.39 2570.98 1077.58 2574.38 1075.81ZM2549.85 1007C2545.35 1007 2540.85 1009.05 2537.59 1012.46 2534.59 1015.86 2533.09 1020.49 2533.36 1025.26L2535.27 1044.2C2532.54 1044.74 2530.09 1046.92 2529.96 1049.79 2529.82 1051.56 2530.37 1053.33 2531.46 1054.69 2532.68 1056.06 2534.45 1056.73 2536.23 1056.73L2537.59 1056.73C2538.68 1064.09 2542.76 1070.22 2548.35 1074.31L2548.35 1082.35C2548.35 1083.98 2547.12 1085.61 2545.63 1085.89L2526.27 1091.75C2520.69 1093.25 2517.01 1098.29 2517.01 1104.01L2517.01 1123.35C2517.01 1124.31 2517.82 1124.99 2518.65 1124.99 2519.6 1124.99 2520.41 1124.18 2520.41 1123.35L2520.41 1103.88C2520.41 1099.79 2523.15 1096.11 2527.09 1094.88L2532.68 1093.25C2534.32 1099.38 2538.13 1104.83 2543.04 1108.91 2548.49 1113.27 2555.43 1115.73 2562.66 1115.73 2569.74 1115.73 2576.56 1113.27 2582.29 1108.91 2587.32 1104.83 2590.87 1099.38 2592.78 1093.25L2598.77 1094.88C2602.73 1096.11 2605.45 1099.65 2605.45 1103.88L2605.45 1123.35C2605.45 1124.31 2606.26 1124.99 2607.09 1124.99 2608.18 1124.99 2608.86 1124.18 2608.86 1123.35L2608.86 1103.88C2608.99 1098.15 2605.31 1093.11 2599.87 1091.47L2580.37 1085.75C2578.88 1085.21 2577.65 1083.71 2577.65 1082.21L2577.65 1074.17C2583.51 1070.22 2587.6 1063.95 2588.42 1056.59L2589.37 1056.59C2592.78 1056.59 2595.64 1054.01 2596.04 1051.01 2596.18 1049.24 2595.64 1047.34 2594.54 1046.1 2593.46 1045.01 2592.09 1044.2 2590.73 1044.06L2591.96 1029.21C2594.54 1026.76 2596.04 1023.63 2596.04 1019.82 2596.04 1012.86 2590.18 1007 2583.24 1007Z" fill="#657E93" fill-rule="evenodd"/><path d="M2549.96 1040.01C2548.76 1040.01 2548 1040.72 2548 1041.56 2548 1042.28 2548.91 1042.99 2549.96 1042.99L2554.03 1042.99C2555.09 1042.99 2555.99 1042.28 2555.99 1041.56 2555.99 1040.72 2555.24 1040.01 2554.03 1040.01Z" fill="#657E93" fill-rule="evenodd"/><path d="M2572.63 1040.01C2571.68 1040.01 2571.01 1040.72 2571.01 1041.56 2571.01 1042.28 2571.81 1042.99 2572.63 1042.99L2576.39 1042.99C2577.32 1042.99 2578 1042.28 2578 1041.56 2578 1040.72 2577.32 1040.01 2576.39 1040.01Z" fill="#657E93" fill-rule="evenodd"/></g></svg>