<svg width="141" height="126" xmlns="http://www.w3.org/2000/svg" xmlns:xlink="http://www.w3.org/1999/xlink" xml:space="preserve" overflow="hidden"><g transform="translate(-1107 -1500)"><path d="M1131.54 1509C1133.66 1509 1135.91 1510.37 1137.37 1512.7 1138.96 1515.71 1139.88 1519.54 1139.23 1522.15 1138.96 1522.83 1138.69 1523.93 1137.9 1524.34 1137.5 1524.62 1136.97 1524.75 1136.58 1524.75 1133.93 1524.75 1129.95 1522.15 1127.7 1518.73 1126.64 1516.8 1126.11 1514.76 1126.64 1513.11 1126.91 1511.74 1127.7 1510.51 1128.89 1509.82 1129.69 1509.27 1130.75 1509 1131.54 1509ZM1131.59 1505C1129.93 1505 1128.29 1505.46 1126.77 1506.39 1124.65 1507.76 1123.32 1509.82 1122.67 1512.28 1122 1515.16 1122.67 1518.17 1124.25 1521.19 1125.97 1523.66 1128.37 1526.12 1131.28 1527.63 1132.99 1528.72 1134.85 1529 1136.31 1529 1137.63 1529 1138.83 1528.59 1139.88 1527.91 1141.34 1526.94 1142.54 1525.43 1142.93 1523.11 1144 1519.4 1142.93 1514.48 1140.68 1510.64 1138.45 1506.96 1135.02 1505 1131.59 1505Z" fill="#657E93" fill-rule="evenodd"/><path d="M1115.53 1526.24C1116.89 1526.24 1118.38 1526.93 1119.73 1528.16 1122.44 1530.36 1124.61 1535.28 1123.12 1537.07 1122.78 1537.49 1122.07 1537.71 1121.19 1537.71 1120.66 1537.71 1120.07 1537.63 1119.46 1537.48 1117.3 1537.2 1115.4 1536.11 1113.77 1534.74 1112.41 1533.5 1111.61 1532.27 1111.47 1530.9 1111.33 1529.67 1111.61 1528.44 1112.41 1527.61 1113.37 1526.8 1114.31 1526.24 1115.53 1526.24ZM1115.57 1522C1113.23 1522 1110.99 1522.97 1109.31 1524.88 1107.68 1526.8 1107 1528.99 1107.41 1531.59 1107.68 1533.91 1109.04 1536.11 1111.06 1538.02 1113.1 1539.67 1115.8 1541.03 1118.51 1541.86 1119.46 1542 1120.14 1542 1120.95 1542 1123.12 1542 1125.02 1541.31 1126.24 1539.94 1127.86 1537.88 1128 1535.15 1127.04 1531.87 1126.24 1529.26 1124.47 1526.52 1122.44 1524.88 1120.34 1522.97 1117.91 1522 1115.57 1522Z" fill="#657E93" fill-rule="evenodd"/><path d="M1156.2 1500C1152.59 1500 1149.17 1501.95 1147.36 1505.47 1146.82 1506.39 1147.23 1507.57 1148.17 1508.1 1148.5 1508.26 1148.82 1508.33 1149.14 1508.33 1149.86 1508.33 1150.49 1507.94 1150.87 1507.32 1151.94 1505.23 1153.95 1503.96 1155.99 1503.96 1156.27 1503.96 1156.54 1503.98 1156.81 1504.03 1158.16 1504.16 1159.38 1504.81 1160.19 1506 1161.27 1507.45 1161.68 1509.28 1161.41 1511.39 1160.76 1515.8 1157.12 1520.22 1154.44 1520.22 1154.33 1520.22 1154.21 1520.2 1154.11 1520.18 1152.22 1519.93 1150.59 1517.17 1150.06 1513.35 1149.93 1512.17 1148.85 1511.52 1147.89 1511.52 1146.68 1511.65 1146 1512.7 1146 1513.62 1146.54 1518.35 1149.11 1523.34 1153.57 1524L1154.52 1524C1156.81 1524 1159.38 1522.69 1161.54 1520.06 1163.56 1517.69 1165.05 1514.66 1165.59 1511.65 1166 1508.88 1165.32 1506 1163.56 1503.63 1162.07 1501.67 1159.78 1500.47 1157.49 1500.09 1157.05 1500.03 1156.62 1500 1156.2 1500Z" fill="#657E93" fill-rule="evenodd"/><path d="M1176.38 1513.89C1176.8 1513.89 1177.47 1514.02 1178.02 1514.29 1179.11 1514.69 1179.94 1515.75 1180.2 1516.94 1180.75 1518.26 1180.62 1519.85 1179.8 1521.31 1178.36 1524.12 1174.88 1527.04 1172.68 1527.04 1172.38 1527.04 1172.12 1526.99 1171.87 1526.88 1169.83 1525.82 1169.97 1520.52 1171.34 1517.61 1172.01 1516.01 1173.24 1514.94 1174.6 1514.29 1175.16 1514.02 1175.83 1513.89 1176.38 1513.89ZM1176.52 1510.01C1175.36 1510.01 1174.2 1510.25 1173.1 1510.7 1170.92 1511.77 1169.01 1513.62 1167.78 1515.88 1166.55 1518.26 1166 1521.18 1166.28 1523.83 1166.55 1527.15 1167.92 1529.4 1170.1 1530.45 1171.06 1530.86 1171.87 1530.99 1172.7 1530.99 1176.93 1530.99 1181.58 1526.75 1183.49 1523.04 1184.71 1520.64 1184.99 1518.26 1184.31 1515.88 1183.62 1513.62 1182.12 1511.77 1179.94 1510.7 1178.84 1510.25 1177.68 1510.01 1176.52 1510.01Z" fill="#657E93" fill-rule="evenodd"/><path d="M1153.27 1529C1151.41 1529 1149.56 1529.19 1147.78 1529.64 1141.25 1531 1135.53 1534.55 1131.44 1539.85 1127.5 1544.89 1126 1550.88 1126.96 1556.19 1128.05 1561.36 1131.58 1564.63 1137.43 1565.71 1138.79 1565.99 1140.43 1565.99 1142.2 1565.99 1145.6 1565.99 1149.82 1565.44 1154.85 1564.49 1162.61 1562.99 1168.06 1561.08 1171.6 1558.64 1176.23 1555.1 1177.99 1550.75 1177.04 1545.43 1176.23 1540.94 1173.23 1536.86 1169.14 1533.86 1168.82 1533.58 1168.4 1533.45 1167.97 1533.45 1167.35 1533.45 1166.69 1533.76 1166.28 1534.41 1165.61 1535.22 1165.75 1536.58 1166.83 1537.27 1170.24 1539.85 1172.41 1542.85 1173.1 1546.25 1173.77 1549.79 1172.55 1552.51 1169.14 1554.97 1166.02 1557 1161.25 1558.64 1154.04 1560.27 1149.14 1561.22 1145.19 1561.77 1142.2 1561.77 1133.76 1561.77 1131.72 1558.5 1131.04 1555.1 1129.41 1546.93 1136.48 1536.04 1148.6 1533.46 1150.18 1533.12 1151.77 1532.93 1153.35 1532.93 1155.57 1532.93 1157.8 1533.29 1160.03 1534 1160.2 1534.08 1160.38 1534.11 1160.57 1534.11 1161.4 1534.11 1162.28 1533.41 1162.61 1532.64 1162.89 1531.69 1162.2 1530.46 1161.25 1530.05 1158.68 1529.41 1155.96 1529 1153.27 1529Z" fill="#657E93" fill-rule="evenodd"/><path d="M1204.37 1561.05C1207.49 1561.47 1209.7 1564.52 1209.57 1568.69 1209.57 1572.02 1208.14 1575.64 1206.19 1577.58 1205.76 1578.04 1205.13 1578.61 1204.33 1578.61 1204.17 1578.61 1204.01 1578.59 1203.86 1578.56 1201.25 1578.42 1198.52 1572.85 1198.65 1568 1198.65 1565.77 1199.56 1563.84 1200.73 1562.44 1201.77 1561.61 1202.94 1561.05 1203.98 1561.05ZM1204 1557.01C1201.84 1557.01 1199.71 1557.85 1198.26 1559.52 1196.05 1561.61 1195.01 1564.52 1195.01 1568 1195.01 1571.06 1195.79 1574.52 1197.22 1577.58 1199.04 1581.05 1201.51 1583 1204.11 1583L1204.37 1583C1206.06 1583 1207.75 1582.3 1209.32 1580.63 1212.05 1578.14 1213.86 1573.27 1213.99 1568.83 1213.61 1562.44 1209.7 1557.3 1204.5 1557.02 1204.34 1557.01 1204.16 1557.01 1204 1557.01Z" fill="#657E93" fill-rule="evenodd"/><path d="M1181.73 1567.2C1182.55 1567.2 1183.52 1567.34 1184.22 1567.9 1185.33 1568.73 1186.31 1570.12 1186.72 1571.79 1187.42 1575.56 1186.58 1580.98 1184.36 1581.69 1184.28 1581.7 1184.19 1581.7 1184.09 1581.7 1183.25 1581.7 1182.02 1581.12 1180.89 1579.87 1179.5 1578.48 1178.25 1576.39 1177.69 1574.3 1176.86 1570.96 1178.11 1568.04 1180.75 1567.34 1181.03 1567.2 1181.45 1567.2 1181.73 1567.2ZM1181.59 1563C1180.89 1563 1180.19 1563.11 1179.5 1563.3 1174.64 1564.56 1172 1569.84 1173.53 1575.56 1174.23 1578.06 1175.9 1580.84 1177.97 1582.94 1179.78 1584.88 1181.87 1586 1183.94 1586 1184.5 1586 1185.05 1586 1185.61 1585.72 1190.75 1584.19 1192 1576.11 1190.61 1570.82 1189.91 1568.04 1188.39 1565.81 1186.44 1564.56 1184.97 1563.57 1183.29 1563 1181.59 1563Z" fill="#657E93" fill-rule="evenodd"/><path d="M1227.29 1567C1225.6 1567 1223.86 1567.42 1222.22 1568.31 1221.14 1568.84 1220.87 1570.16 1221.41 1570.96 1221.68 1571.67 1222.37 1572.02 1223.09 1572.02 1223.44 1572.02 1223.8 1571.93 1224.12 1571.75 1225.11 1571.19 1226.16 1570.91 1227.19 1570.91 1228.53 1570.91 1229.82 1571.39 1230.9 1572.29 1231.84 1573.35 1232.53 1574.4 1232.53 1575.73 1232.53 1577.59 1231.84 1579.45 1230.35 1580.91 1227.96 1583.34 1224.1 1585.06 1221.41 1585.06 1220.46 1585.06 1219.64 1584.84 1219.1 1584.35 1217.75 1583.29 1218.02 1579.71 1219.65 1576.4 1220.18 1575.47 1219.79 1574.27 1218.83 1573.75 1218.52 1573.62 1218.2 1573.57 1217.9 1573.57 1217.17 1573.57 1216.51 1573.93 1216.12 1574.67 1213.96 1578.91 1213 1584.35 1216.39 1587.4 1217.75 1588.59 1219.51 1588.99 1221.55 1588.99 1222.77 1588.99 1223.85 1588.86 1225.21 1588.59 1228.32 1587.66 1231.31 1585.94 1233.33 1583.69 1235.78 1581.43 1237 1578.65 1236.73 1575.61 1236.59 1573.08 1235.65 1570.96 1233.74 1569.37 1231.93 1567.82 1229.66 1567 1227.29 1567Z" fill="#657E93" fill-rule="evenodd"/><path d="M1239.39 1591.35C1240.9 1591.35 1242.23 1592.01 1243 1593.37 1243.55 1594.35 1243.68 1595.6 1243.41 1596.84 1242.87 1598.23 1241.92 1599.48 1240.3 1600.32 1238.68 1601.28 1236.53 1601.98 1234.5 1601.98 1232.74 1601.98 1231.4 1601.56 1230.86 1600.86 1230.45 1600.18 1230.73 1598.51 1231.53 1596.98 1232.62 1595.18 1234.23 1593.51 1235.85 1592.41 1237.05 1591.71 1238.28 1591.35 1239.39 1591.35ZM1239.16 1587C1237.31 1587 1235.36 1587.55 1233.56 1588.67 1231.27 1590.05 1229.24 1592.27 1227.89 1594.77 1226.14 1597.68 1226 1600.59 1227.21 1602.67 1228.43 1604.75 1230.86 1606 1234.23 1606 1236.94 1606 1240.03 1605.16 1242.2 1603.78 1244.62 1602.39 1246.24 1600.32 1247.06 1598.09 1248 1595.74 1247.73 1593.24 1246.38 1591.16 1244.88 1588.42 1242.15 1587 1239.16 1587Z" fill="#657E93" fill-rule="evenodd"/><path d="M1197.87 1586.01C1194.88 1586.01 1191.88 1586.5 1188.99 1587.43 1182.81 1589.51 1178.14 1593.63 1176.07 1598.6 1174.01 1603.55 1175.11 1608.37 1179.37 1612.5 1182.54 1615.67 1187.49 1618.42 1194.91 1621.45 1202.19 1624.62 1207.7 1626 1212.1 1626 1217.88 1626 1222 1623.39 1224.07 1618.42 1225.99 1614.16 1225.99 1608.93 1224.07 1604.1 1223.85 1603.33 1223.02 1602.74 1222.13 1602.74 1221.9 1602.74 1221.68 1602.77 1221.45 1602.87 1220.49 1603.27 1219.8 1604.38 1220.35 1605.48 1221.59 1609.47 1221.87 1613.46 1220.49 1616.63 1219.36 1619.31 1217.41 1621.66 1212.35 1621.66 1208.84 1621.66 1203.83 1620.53 1196.56 1617.6 1189.69 1614.71 1185.28 1612.22 1182.54 1609.47 1179.51 1606.44 1178.69 1603.55 1180.06 1600.11 1181.58 1596.25 1185.42 1593.08 1190.38 1591.3 1192.8 1590.55 1195.32 1590.16 1197.85 1590.16 1200.89 1590.16 1203.95 1590.72 1206.87 1591.84 1210.45 1593.36 1213.76 1595.71 1216.23 1598.74 1216.64 1599.23 1217.33 1599.53 1217.97 1599.53 1218.39 1599.53 1218.79 1599.41 1219.12 1599.14 1219.94 1598.46 1220.07 1597.08 1219.39 1596.11 1216.51 1592.67 1212.79 1589.92 1208.39 1588.13 1205.02 1586.71 1201.44 1586.01 1197.87 1586.01Z" fill="#657E93" fill-rule="evenodd"/></g></svg>