<svg width="103" height="123" xmlns="http://www.w3.org/2000/svg" xmlns:xlink="http://www.w3.org/1999/xlink" xml:space="preserve" overflow="hidden"><g transform="translate(-539 -1002)"><path d="M636.092 1013.6C636.506 1013.6 637.059 1013.74 637.462 1014.15 637.739 1014.41 637.877 1014.96 637.877 1015.51L637.877 1023.14C637.877 1030.1 636.368 1035.28 633.351 1038.69 630.609 1041.69 626.912 1043.05 623.342 1044.55 621.695 1045.23 619.91 1045.92 618.401 1046.87 620.048 1041.69 621.015 1036.23 621.015 1030.64L621.015 1022.74C623.48 1022.74 625.945 1021.64 627.454 1019.33L628.824 1017.28C630.609 1014.96 633.074 1013.6 636.092 1013.6ZM544.217 1013.74C547.097 1013.74 549.7 1015.1 551.347 1017.55L552.717 1019.6C554.226 1021.5 556.702 1023 559.305 1023L559.305 1030.78C559.305 1036.23 560.123 1041.69 561.77 1047 560.261 1045.92 558.614 1045.23 556.829 1044.55 553.27 1043.19 549.7 1041.69 546.958 1038.69 543.803 1035.28 542.294 1030.1 542.294 1023.14L542.294 1015.64C542.294 1015.1 542.432 1014.55 542.847 1014.28 543.123 1013.88 543.665 1013.74 544.217 1013.74ZM620.739 1005.42 620.739 1009.65 605.098 1009.65C604.142 1009.65 603.325 1010.46 603.325 1011.55 603.325 1012.51 604.142 1013.46 605.098 1013.46L617.03 1013.46 617.03 1030.78C617.169 1046.45 609.625 1061.46 596.737 1070.87L595.366 1071.82C595.09 1071.82 594.687 1071.68 594.41 1071.68L585.496 1071.68C585.081 1071.68 584.805 1071.68 584.402 1071.82L583.031 1070.87C570.408 1061.46 562.726 1046.45 562.726 1030.78L562.726 1013.46 596.737 1013.46C597.831 1013.46 598.66 1012.51 598.66 1011.55 598.66 1010.46 597.831 1009.65 596.737 1009.65L558.891 1009.65 558.891 1005.42ZM594.548 1075.23C595.228 1075.23 595.781 1075.77 595.781 1076.46L595.781 1077.82C595.781 1078.5 595.228 1079.05 594.548 1079.05L585.634 1079.05C584.943 1079.05 584.402 1078.5 584.402 1077.82L584.402 1076.46C584.402 1075.77 584.943 1075.23 585.634 1075.23ZM592.21 1082.58 592.21 1100.17 587.822 1100.17 587.822 1082.58ZM601.401 1103.72C602.634 1103.72 603.59 1104.81 603.59 1105.9L603.59 1107.95 587.546 1107.95C586.452 1107.95 585.634 1108.9 585.634 1109.86 585.634 1110.95 586.452 1111.76 587.546 1111.76L612.366 1111.76C612.504 1111.76 612.78 1111.9 612.919 1112.04L614.566 1120.76C614.566 1120.9 614.566 1121.18 614.427 1121.18 614.427 1121.18 614.289 1121.31 614.151 1121.31L566.296 1121.31C566.158 1121.31 565.882 1121.18 565.882 1121.18 565.882 1121.18 565.743 1120.9 565.743 1120.76L567.529 1112.04C567.529 1111.9 567.667 1111.76 567.943 1111.76L579.184 1111.76C580.152 1111.76 580.969 1110.95 580.969 1109.86 580.969 1108.9 580.152 1107.95 579.184 1107.95L576.581 1107.95 576.581 1105.9C576.581 1104.81 577.537 1103.72 578.77 1103.72ZM559.029 1002.01C557.105 1002.01 555.597 1003.51 555.597 1005.42L555.597 1010.05C555.597 1011.83 557.105 1013.46 559.029 1013.46L559.443 1013.46 559.443 1019.33C558.073 1019.33 556.702 1018.64 556.011 1017.55L554.641 1015.51C552.314 1012.1 548.467 1010.19 544.494 1010.19 542.985 1010.19 541.614 1010.74 540.52 1011.69 539.553 1012.78 539.012 1014.01 539.012 1015.64L539.012 1023.14C539.012 1041.14 548.191 1044.95 555.873 1047.95 559.846 1049.73 563.693 1051.23 565.479 1054.78 565.882 1055.87 565.743 1056.68 565.064 1057.51 564.477 1058.27 563.417 1058.64 562.507 1058.64 562.127 1058.64 561.781 1058.57 561.493 1058.46 560.123 1057.91 559.985 1056.14 560.123 1055.04 560.123 1053.96 559.443 1053.14 558.338 1053.14 557.382 1053.14 556.426 1053.82 556.426 1054.78 556.426 1056.28 556.702 1060.23 560.123 1061.87 560.952 1062.14 561.632 1062.27 562.461 1062.27 564.373 1062.27 566.434 1061.46 567.667 1060.09 567.805 1059.96 567.943 1059.82 567.943 1059.54 571.375 1065.01 576.028 1070.04 581.384 1073.86L581.649 1074.13C581.108 1074.68 580.969 1075.63 580.969 1076.59L580.969 1077.96C580.969 1080.27 582.478 1082.05 584.667 1082.58L584.667 1100.31 579.184 1100.31C575.89 1100.31 573.287 1102.9 573.287 1106.04L573.287 1108.09 568.358 1108.09C566.434 1108.09 564.787 1109.45 564.373 1111.36L562.726 1120.09C562.461 1121.31 562.726 1122.4 563.555 1123.49 564.373 1124.45 565.479 1124.99 566.573 1124.99L614.427 1124.99C615.66 1124.99 616.892 1124.45 617.583 1123.49 618.401 1122.4 618.539 1121.31 618.401 1120.09L616.627 1111.36C616.351 1109.45 614.566 1108.09 612.78 1108.09L607.713 1108.09 607.713 1106.04C607.713 1102.9 605.237 1100.31 601.954 1100.31L596.46 1100.31 596.46 1082.58C598.522 1082.05 600.031 1080.27 600.031 1077.96L600.031 1076.46C600.031 1075.63 599.754 1074.82 599.34 1073.86L599.754 1073.73C604.972 1069.77 609.625 1064.87 613.057 1059.41 613.195 1059.54 613.472 1059.82 613.472 1059.96 614.842 1061.32 616.627 1062.14 618.539 1062.14 619.368 1062.14 620.324 1062.01 621.015 1061.59 624.436 1060.09 624.713 1056.41 624.574 1054.64 624.574 1053.68 623.757 1053 622.651 1053 621.695 1053 621.015 1053.82 621.015 1054.78 621.015 1056.01 620.739 1057.78 619.645 1058.18 619.334 1058.34 618.988 1058.4 618.62 1058.4 617.675 1058.4 616.627 1057.95 615.936 1057.37 615.257 1056.68 615.119 1055.73 615.66 1054.64 617.307 1051.09 621.015 1049.59 625.265 1047.82 632.809 1044.82 641.989 1041 641.989 1023L641.989 1015.51C641.586 1014.15 640.894 1012.78 639.8 1011.69 638.833 1010.74 637.462 1010.19 635.815 1010.19 631.704 1010.19 628.006 1012.24 625.807 1015.51L624.436 1017.55C623.48 1018.64 622.386 1019.33 621.015 1019.33L621.015 1013.46 621.28 1013.46C623.204 1013.46 624.713 1011.83 624.713 1010.05L624.713 1005.42C624.713 1003.51 623.204 1002.01 621.28 1002.01Z" fill="#657E93" fill-rule="evenodd"/><path d="M589.592 1028.49 592.325 1033.98C592.738 1034.64 593.152 1035.05 594.105 1035.18L600.397 1035.98 596.149 1040.4C595.609 1040.94 595.471 1041.6 595.471 1042.28L596.424 1048.44 590.821 1045.62C590.408 1045.36 590.144 1045.36 589.73 1045.36 589.455 1045.36 589.041 1045.36 588.777 1045.62L583.163 1048.44 584.127 1042.28C584.265 1041.6 583.989 1040.94 583.438 1040.4L578.788 1035.98 585.218 1035.18C585.895 1035.05 586.584 1034.64 586.86 1033.98L589.592 1028.49ZM590.144 1023C589.317 1023 588.639 1023.54 588.226 1024.2L584.529 1031.7 576.055 1032.9C575.24 1033.04 574.551 1033.58 574.413 1034.38 574.012 1035.18 574.413 1035.98 574.965 1036.52L581.119 1042.41 579.753 1050.57C579.477 1051.37 579.89 1052.31 580.568 1052.58 580.935 1052.86 581.337 1053 581.739 1053 582.095 1053 582.439 1052.9 582.761 1052.72L590.27 1048.96 597.79 1052.72C598.204 1052.98 598.479 1052.98 598.893 1052.98 599.295 1052.98 599.708 1052.72 599.984 1052.58 600.661 1052.04 601.074 1051.25 600.937 1050.57L599.57 1042.41 605.724 1036.52C605.862 1035.98 606 1035.18 605.862 1034.38 605.449 1033.58 605.036 1033.04 604.083 1032.9L595.747 1031.7 592.05 1024.2C591.648 1023.54 590.821 1023 590.144 1023Z" fill="#657E93" fill-rule="evenodd"/></g></svg>